<svg xmlns="http://www.w3.org/2000/svg" width="103" height="50" viewBox="0 0 103 50">
    <g fill="none" fill-rule="evenodd">
        <path fill="#1A1919" fill-rule="nonzero" d="M44.324 12.489c-.328.259-.546.627-.921 1.105a56.867 56.867 0 0 0-2.478 3.446c-.43.628-.818 1.18-1.16 1.836h4.675v1.863h-7.227v-1.413c.328-.505.587-1.05.97-1.637.374-.594.77-1.188 1.173-1.781.396-.601.798-1.188 1.194-1.727.396-.546.75-.996 1.058-1.433H37.43v-1.863h6.893V12.489zm8.537 0a42.386 42.386 0 0 0-2.06 2.702c-.424.58-.847 1.215-1.27 1.843-.43.634-.812 1.187-1.153 1.842h4.6v1.863h-7.119v-1.413c.328-.505.58-1.05.956-1.637a97.492 97.492 0 0 1 2.354-3.508c.39-.546.75-.996 1.051-1.433h-4.142v-1.863h6.783V12.489zm4.054-6.197h-.02c-.355 0-1.911.28-2.273.635v13.819h2.293V6.292zm7.896 8.537c0-.327-.048-.614-.137-.887a2.15 2.15 0 0 0-.382-.737 1.822 1.822 0 0 0-1.501-.662 2.04 2.04 0 0 0-1.59.717c-.185.204-.321.45-.424.723-.102.273-.17.519-.204.846h4.238zm-6.62 1.024c0-.86.136-1.624.389-2.273a4.777 4.777 0 0 1 1.024-1.637c.417-.426.92-.758 1.474-.976a4.56 4.56 0 0 1 1.706-.321c1.351 0 2.409.423 3.173 1.262.758.84 1.14 2.096 1.14 3.767a10.1 10.1 0 0 1-.041.799h-6.497c.061.88.341 1.433.84 1.863.49.43 1.214.662 2.156.662a7.097 7.097 0 0 0 2.593-.464l.307 1.87c-.41.168-.835.298-1.27.389-.63.12-1.268.186-1.91.198a6.046 6.046 0 0 1-2.266-.39 4.204 4.204 0 0 1-2.504-2.695c-.205-.621-.3-1.297-.3-2.047l-.014-.007zM17.074 10.885v5.159c0 1.058-.136 1.808-.436 2.259-.307.457-.833.682-1.597.682-.765 0-1.27-.225-1.577-.682-.307-.45-.436-1.201-.436-2.252v-5.166h-2.3v5.52c0 .663.061 1.277.198 1.836.136.56.361 1.038.682 1.44.32.403.75.71 1.276.942.54.225 1.379.335 2.17.335.792 0 1.638-.11 2.17-.342a3.18 3.18 0 0 0 1.952-2.375c.137-.56.198-1.173.198-1.842v-5.514h-2.3zm-14.74 4.9c0-.97.191-1.734.58-2.3.382-.567.99-.846 1.815-.846.656-.011 1.299.18 1.843.546v5.664a2.43 2.43 0 0 1-3.522-.71c-.477-.566-.716-1.351-.716-2.354zM0 15.819c0 .791.116 1.501.348 2.136a4.3 4.3 0 0 0 2.573 2.661c.614.246 1.31.369 2.088.369a13.17 13.17 0 0 0 3.856-.546V6.285H8.85c-.355 0-1.91.28-2.272.635h-.014v4.3a4.422 4.422 0 0 0-2.225-.547c-.682 0-1.296.116-1.842.362a3.636 3.636 0 0 0-1.365 1.044 4.818 4.818 0 0 0-.84 1.638C.096 14.345 0 15.047 0 15.812v.007zM27.058 18.146c-.49.579-1.221.897-1.979.86a7.677 7.677 0 0 1-1.549-.15v-5.671a3.555 3.555 0 0 1 1.856-.546c.826 0 1.434.273 1.816.846.382.566.573 1.33.573 2.3 0 1.003-.239 1.788-.717 2.36zm2.757-4.43a4.818 4.818 0 0 0-.839-1.63 3.637 3.637 0 0 0-1.365-1.044c-.546-.246-1.16-.369-1.856-.369-.464 0-.88.062-1.262.17-.383.117-.744.24-.956.376V6.292h-.034c-.355 0-1.91.28-2.266.635v13.512c.437.136 1.017.26 1.706.375.683.11 1.4.17 2.15.17.785 0 1.48-.122 2.095-.36a4.3 4.3 0 0 0 2.573-2.662c.232-.635.341-1.352.341-2.143 0-.765-.089-1.467-.287-2.102zm3.692-2.831s-1.057 0-1.364.19c-.362.233-.58.547-.58.963 0 .39.13 3.501.177 3.801.055.307.368.103.498.88.137.772.457 4.075.546 4.157.116.116.628.211.75.211.117 0 .629-.095.751-.211.075-.082.403-3.385.533-4.163.136-.771.45-.567.505-.874.047-.3.17-3.412.17-3.8 0-.41-.225-.731-.587-.963-.28-.184-1.228-.191-1.364-.191h-.048.013zm1.365-1.747a1.314 1.314 0 1 1-2.627 0 1.314 1.314 0 0 1 2.627 0z"/>
        <path fill="#C0232A" fill-rule="nonzero" d="M32.825 4.286c.682-.574 1.754-1.638 1.754-2.443 0-1.229-.662-1.795-.662-1.795s.287.976-1.959 3.037c-1.924 1.774-1.658 3.391-1.651 3.5.068.997.478 2.15 1.2 2.628a2.907 2.907 0 0 1-.47-1.508c0-.164-.143-1.809 1.788-3.42"/>
        <path fill="#C0232A" fill-rule="nonzero" d="M36.483 7.848c-.041-.976-.355-1.058-.717-1.924-.512-1.406.362-2.594-.614-4.088-.3 1.897-1.706 2.45-2.736 3.664-.806.949-1.024 2.17-.635 3.024a1.884 1.884 0 1 1 3.344 1.644c.894-.32 1.392-1.378 1.358-2.32m63.719 15.013c0-.49-.048-1.979-.178-2.593h-.007c-.293-1.829-1.303-4.627-4.517-7.588-6.231-5.726-5.433-8.422-5.433-8.422S88.24 5.821 88.24 9.24c0 2.239 2.954 5.187 4.865 6.77 5.357 4.477 4.955 9.042 4.955 9.5a8.135 8.135 0 0 1-.478 2.524 11.417 11.417 0 0 1-4.6 5.412v-8.421c0-.662-.34-1.263-.907-1.583L88.94 21.68v-3.917c0-.655-.327-1.242-.887-1.57a1.706 1.706 0 0 0-1.706-.014l-4.088 2.3c-.566.325-.913.93-.907 1.584v13.614a11.533 11.533 0 0 1-5.842-9.984c0-5.992 4.682-11.014 10.646-11.43a.684.684 0 0 0-.089-1.366 12.857 12.857 0 0 0-11.922 12.796 12.898 12.898 0 0 0 7.336 11.588l.321.116a.682.682 0 0 0 .921-.642V20.064a.43.43 0 0 1 .219-.39l4.08-2.3a.341.341 0 0 1 .349 0 .433.433 0 0 1 .211.39v3.207a1.706 1.706 0 0 0-1.296.184 1.788 1.788 0 0 0-.887 1.57v12.024a.682.682 0 1 0 1.364 0V22.725a.45.45 0 0 1 .205-.389c.11-.07.251-.07.362 0l4.074 2.3a.423.423 0 0 1 .218.389v9.533a.682.682 0 0 0 .888.656l.232-.069a12.83 12.83 0 0 0 4.681-3.999 13.622 13.622 0 0 0 2.784-8.278M2.6 25.694c.833 0 1.433.184 1.795.546.368.361.546.9.546 1.624v3.849h-.846v-3.85c0-.934-.533-1.398-1.59-1.398-.492 0-1.004.075-1.55.232v5.016H.102v-5.44a5.466 5.466 0 0 1 2.498-.58"/>
        <path stroke="#C0232A" stroke-width=".5" d="M2.6 25.694c.833 0 1.433.184 1.795.546.368.361.546.9.546 1.624v3.849h-.846v-3.85c0-.934-.533-1.398-1.59-1.398-.492 0-1.004.075-1.55.232v5.016H.102v-5.44a5.466 5.466 0 0 1 2.498-.58z"/>
        <path fill="#C0232A" fill-rule="nonzero" d="M7.957 26.833c-.273.246-.437.676-.512 1.29h3.378c-.04-.553-.198-.969-.464-1.242-.273-.273-.682-.41-1.214-.41-.526 0-.922.123-1.188.362zm3.167-.266c.41.587.614 1.365.6 2.334H7.411c0 .717.164 1.256.498 1.638.335.382.806.566 1.42.566.791 0 1.467-.17 2.027-.505v.874c-.574.273-1.27.41-2.075.41-.86 0-1.529-.26-2.013-.792-.478-.533-.723-1.317-.723-2.341 0-1.003.232-1.768.682-2.28a2.409 2.409 0 0 1 1.91-.777c.908 0 1.57.293 1.98.873h.007z"/>
        <path stroke="#C0232A" stroke-width=".5" d="M7.957 26.833c-.273.246-.437.676-.512 1.29h3.378c-.04-.553-.198-.969-.464-1.242-.273-.273-.682-.41-1.214-.41-.526 0-.922.123-1.188.362zm3.167-.266c.41.587.614 1.365.6 2.334H7.411c0 .717.164 1.256.498 1.638.335.382.806.566 1.42.566.791 0 1.467-.17 2.027-.505v.874c-.574.273-1.27.41-2.075.41-.86 0-1.529-.26-2.013-.792-.478-.533-.723-1.317-.723-2.341 0-1.003.232-1.768.682-2.28a2.409 2.409 0 0 1 1.91-.777c.908 0 1.57.293 1.98.873h.007z"/>
        <path fill="#C0232A" fill-rule="nonzero" d="M21.394 25.796l-1.965 5.917h-.867l-1.48-4.907-1.461 4.907h-.86l-1.972-5.91h.9l1.543 4.934 1.447-4.934h.819l1.487 4.947 1.57-4.947h.84"/>
        <path stroke="#C0232A" stroke-width=".5" d="M21.394 25.796l-1.965 5.917h-.867l-1.48-4.907-1.461 4.907h-.86l-1.972-5.91h.9l1.543 4.934 1.447-4.934h.819l1.487 4.947 1.57-4.947z"/>
        <path fill="#C0232A" fill-rule="nonzero" d="M29.945 30.505c.328-.396.491-.928.491-1.604 0-.737-.136-1.33-.409-1.774-.266-.43-.75-.655-1.454-.655a3.59 3.59 0 0 0-1.085.15c-.293.102-.443.232-.443.395v3.665c.477.273.962.41 1.467.41.628 0 1.106-.191 1.433-.587zm.614-4.047c.512.512.778 1.324.778 2.443 0 .928-.245 1.651-.737 2.184-.491.525-1.187.791-2.088.791-.505-.03-1-.145-1.467-.34v2.75h-.853v-7.419c0-.436.239-.737.716-.907.478-.17 1.038-.26 1.68-.273.79 0 1.446.26 1.964.77h.007z"/>
        <path stroke="#C0232A" stroke-width=".5" d="M29.945 30.505c.328-.396.491-.928.491-1.604 0-.737-.136-1.33-.409-1.774-.266-.43-.75-.655-1.454-.655a3.59 3.59 0 0 0-1.085.15c-.293.102-.443.232-.443.395v3.665c.477.273.962.41 1.467.41.628 0 1.106-.191 1.433-.587zm.614-4.047c.512.512.778 1.324.778 2.443 0 .928-.245 1.651-.737 2.184-.491.525-1.187.791-2.088.791-.505-.03-1-.145-1.467-.34v2.75h-.853v-7.419c0-.436.239-.737.716-.907.478-.17 1.038-.26 1.68-.273.79 0 1.446.26 1.964.77h.007z"/>
        <path fill="#C0232A" fill-rule="nonzero" d="M32.934 26.274c.3-.13.696-.253 1.194-.383a5.697 5.697 0 0 1 1.53-.204c.081 0 .204.027.381.075v.757a4.572 4.572 0 0 0-1.296.014l-.956.157v5.023h-.853v-5.44"/>
        <path stroke="#C0232A" stroke-width=".5" d="M32.934 26.274c.3-.13.696-.253 1.194-.383a5.697 5.697 0 0 1 1.53-.204c.081 0 .204.027.381.075v.757a4.572 4.572 0 0 0-1.296.014l-.956.157v5.023h-.853v-5.44z"/>
        <path fill="#C0232A" fill-rule="nonzero" d="M41.274 28.771c0-.744-.144-1.31-.437-1.706-.294-.396-.771-.593-1.433-.593-1.242 0-1.857.77-1.857 2.3 0 1.555.615 2.333 1.857 2.333 1.248 0 1.87-.778 1.87-2.334zm-3.904 2.314c-.45-.54-.682-1.31-.682-2.314 0-1.016.232-1.788.696-2.3.464-.518 1.132-.777 2.006-.777.928 0 1.617.273 2.06.819.451.552.683 1.303.683 2.258 0 .983-.238 1.747-.716 2.293s-1.14.82-2 .82c-.907 0-1.59-.26-2.047-.8z"/>
        <path stroke="#C0232A" stroke-width=".5" d="M41.274 28.771c0-.744-.144-1.31-.437-1.706-.294-.396-.771-.593-1.433-.593-1.242 0-1.857.77-1.857 2.3 0 1.555.615 2.333 1.857 2.333 1.248 0 1.87-.778 1.87-2.334zm-3.904 2.314c-.45-.54-.682-1.31-.682-2.314 0-1.016.232-1.788.696-2.3.464-.518 1.132-.777 2.006-.777.928 0 1.617.273 2.06.819.451.552.683 1.303.683 2.258 0 .983-.238 1.747-.716 2.293s-1.14.82-2 .82c-.907 0-1.59-.26-2.047-.8z"/>
        <path fill="#C0232A" fill-rule="nonzero" d="M44.058 24.745h.955v-.935h-.955v.935zm-1.16 8.462c.26.006.519-.045.757-.15a.718.718 0 0 0 .362-.389c.061-.164.089-.382.089-.662v-6.21h.853v6.258c0 .655-.164 1.146-.505 1.467-.342.314-.86.478-1.556.478v-.792z"/>
        <path stroke="#C0232A" stroke-width=".5" d="M44.058 24.745h.955v-.935h-.955v.935zm-1.16 8.462c.26.006.519-.045.757-.15a.718.718 0 0 0 .362-.389c.061-.164.089-.382.089-.662v-6.21h.853v6.258c0 .655-.164 1.146-.505 1.467-.342.314-.86.478-1.556.478v-.792z"/>
        <path fill="#C0232A" fill-rule="nonzero" d="M48.016 26.833c-.266.246-.437.676-.505 1.29h3.378c-.041-.553-.205-.969-.47-1.242-.274-.273-.683-.41-1.216-.41-.518 0-.914.123-1.187.362zm3.166-.266c.417.587.615 1.365.608 2.334h-4.313c0 .717.164 1.256.491 1.638.341.382.812.566 1.426.566.792 0 1.468-.17 2.027-.505v.874c-.58.273-1.269.41-2.074.41-.86 0-1.536-.26-2.013-.792-.478-.533-.724-1.317-.724-2.341 0-1.003.225-1.768.683-2.28a2.409 2.409 0 0 1 1.91-.777c.901 0 1.563.293 1.98.873z"/>
        <path stroke="#C0232A" stroke-width=".5" d="M48.016 26.833c-.266.246-.437.676-.505 1.29h3.378c-.041-.553-.205-.969-.47-1.242-.274-.273-.683-.41-1.216-.41-.518 0-.914.123-1.187.362zm3.166-.266c.417.587.615 1.365.608 2.334h-4.313c0 .717.164 1.256.491 1.638.341.382.812.566 1.426.566.792 0 1.468-.17 2.027-.505v.874c-.58.273-1.269.41-2.074.41-.86 0-1.536-.26-2.013-.792-.478-.533-.724-1.317-.724-2.341 0-1.003.225-1.768.683-2.28a2.409 2.409 0 0 1 1.91-.777c.901 0 1.563.293 1.98.873z"/>
        <path fill="#C0232A" fill-rule="nonzero" d="M53.892 31.14c-.533-.451-.799-1.243-.799-2.39 0-1.139.266-1.93.799-2.388a2.955 2.955 0 0 1 1.972-.668c.594 0 1.174.109 1.754.334v.819a4.32 4.32 0 0 0-1.659-.341c-.702 0-1.214.184-1.535.539-.32.355-.478.921-.478 1.706 0 .791.157 1.365.478 1.706.32.355.833.532 1.535.532a4.07 4.07 0 0 0 1.659-.334v.832c-.553.212-1.14.321-1.754.321a2.969 2.969 0 0 1-1.98-.669"/>
        <path stroke="#C0232A" stroke-width=".5" d="M53.892 31.14c-.533-.451-.799-1.243-.799-2.39 0-1.139.266-1.93.799-2.388a2.955 2.955 0 0 1 1.972-.668c.594 0 1.174.109 1.754.334v.819a4.32 4.32 0 0 0-1.659-.341c-.702 0-1.214.184-1.535.539-.32.355-.478.921-.478 1.706 0 .791.157 1.365.478 1.706.32.355.833.532 1.535.532a4.07 4.07 0 0 0 1.659-.334v.832c-.553.212-1.14.321-1.754.321a2.969 2.969 0 0 1-1.98-.669h.008z"/>
        <path fill="#C0232A" fill-rule="nonzero" d="M60.013 31.412c-.28-.273-.416-.641-.416-1.132v-3.7h-1.03v-.777h1.023V24.13h.86v1.672h1.529v.778h-1.53v3.426c0 .34.055.6.165.757.109.157.314.239.614.239.293 0 .546-.048.75-.143v.805c-.109.04-.252.068-.423.102-.17.028-.327.041-.477.041-.437 0-.792-.136-1.065-.396"/>
        <path stroke="#C0232A" stroke-width=".5" d="M60.013 31.412c-.28-.273-.416-.641-.416-1.132v-3.7h-1.03v-.777h1.023V24.13h.86v1.672h1.529v.778h-1.53v3.426c0 .34.055.6.165.757.109.157.314.239.614.239.293 0 .546-.048.75-.143v.805c-.109.04-.252.068-.423.102-.17.028-.327.041-.477.041-.437 0-.792-.136-1.065-.396z"/>
        <path fill="#C0232A" fill-rule="nonzero" d="M64.155 31.774a5.05 5.05 0 0 1-.934-.382v-.9c.409.231.73.388.99.477.258.095.565.136.92.136.396 0 .717-.082.963-.26.252-.17.375-.395.375-.675 0-.245-.075-.43-.225-.546a2.737 2.737 0 0 0-.71-.375l-.307-.136a9.138 9.138 0 0 1-1.051-.342 1.679 1.679 0 0 1-.655-.477c-.184-.226-.273-.526-.273-.908 0-.375.095-.696.293-.949a1.78 1.78 0 0 1 .771-.56 2.73 2.73 0 0 1 .997-.183c.314 0 .58.034.798.109.219.068.512.184.894.355v.853a10.714 10.714 0 0 0-.907-.417 2.009 2.009 0 0 0-.737-.122c-.348 0-.649.068-.888.204-.252.144-.368.341-.368.594 0 .205.061.369.177.505.123.13.28.232.464.307.185.068.437.157.751.239.396.13.71.246.942.341.239.11.443.273.614.498.184.226.273.526.273.908.012.361-.096.716-.307 1.01a1.924 1.924 0 0 1-.799.614c-.334.13-.675.198-1.023.198-.41 0-.75-.04-1.038-.116"/>
        <path stroke="#C0232A" stroke-width=".5" d="M64.155 31.774a5.05 5.05 0 0 1-.934-.382v-.9c.409.231.73.388.99.477.258.095.565.136.92.136.396 0 .717-.082.963-.26.252-.17.375-.395.375-.675 0-.245-.075-.43-.225-.546a2.737 2.737 0 0 0-.71-.375l-.307-.136a9.138 9.138 0 0 1-1.051-.342 1.679 1.679 0 0 1-.655-.477c-.184-.226-.273-.526-.273-.908 0-.375.095-.696.293-.949a1.78 1.78 0 0 1 .771-.56 2.73 2.73 0 0 1 .997-.183c.314 0 .58.034.798.109.219.068.512.184.894.355v.853a10.714 10.714 0 0 0-.907-.417 2.009 2.009 0 0 0-.737-.122c-.348 0-.649.068-.888.204-.252.144-.368.341-.368.594 0 .205.061.369.177.505.123.13.28.232.464.307.185.068.437.157.751.239.396.13.71.246.942.341.239.11.443.273.614.498.184.226.273.526.273.908.012.361-.096.716-.307 1.01a1.924 1.924 0 0 1-.799.614c-.334.13-.675.198-1.023.198-.41 0-.75-.04-1.038-.116z"/>
    </g>
</svg>
